<svg width="35" height="36" viewBox="0 0 35 36" fill="none" xmlns="http://www.w3.org/2000/svg">
<rect y="0.360107" width="35" height="35" rx="10" fill="white" fill-opacity="0.11"/>
<rect x="0.5" y="0.860107" width="34" height="34" rx="9.5" stroke="white" stroke-opacity="0.1"/>
<path d="M18.5 21.3601C18.9142 21.3601 19.25 21.6959 19.25 22.1101C19.25 22.5243 18.9142 22.8601 18.5 22.8601H15.5C15.0858 22.8601 14.75 22.5243 14.75 22.1101C14.75 21.6959 15.0858 21.3601 15.5 21.3601H18.5ZM21.5 16.3601C21.9142 16.3601 22.25 16.6959 22.25 17.1101C22.25 17.5243 21.9142 17.8601 21.5 17.8601H12.5C12.0858 17.8601 11.75 17.5243 11.75 17.1101C11.75 16.6959 12.0858 16.3601 12.5 16.3601H21.5ZM24.5 11.3601C24.9142 11.3601 25.25 11.6959 25.25 12.1101C25.25 12.5243 24.9142 12.8601 24.5 12.8601H9.5C9.08579 12.8601 8.75 12.5243 8.75 12.1101C8.75 11.6959 9.08579 11.3601 9.5 11.3601H24.5Z" fill="white"/>
</svg>
